<svg width="48" height="48" viewBox="0 0 48 48" xmlns="http://www.w3.org/2000/svg" role="img" aria-label="현일산업개발 심볼 — 순환골재 그린 젬">
  <polygon points="6.68,14 24,13 14.5,18.5" fill="#43C07B"></polygon>
  <polygon points="24,4 24,13 6.68,14" fill="#3BB870"></polygon>
  <polygon points="24,4 41.32,14 24,13" fill="#2FA45F"></polygon>
  <polygon points="41.32,14 33.5,18.5 24,13" fill="#249A57"></polygon>
  <polygon points="6.68,14 14.5,18.5 14.5,29.5 6.68,34" fill="#2BA45D"></polygon>
  <polygon points="41.32,14 41.32,34 33.5,29.5 33.5,18.5" fill="#1C7A45"></polygon>
  <polygon points="24,13 33.5,18.5 33.5,29.5 24,35 14.5,29.5 14.5,18.5" fill="#34B36B"></polygon>
  <polygon points="6.68,34 14.5,29.5 24,35 24,44" fill="#1A7040"></polygon>
  <polygon points="41.32,34 24,44 24,35 33.5,29.5" fill="#155F38"></polygon>
</svg>